PathFileType	4	(X/Y/Z)	/Users/itak/Documents/Research/Walk-IL/dataset/trc/00136_00007.trc
DataRate	CameraRate	NumFrames	NumMarkers	Units	OrigDataRate	OrigDataStartFrame	OrigNumFrames
100.000000	100.000000	4	53	mm	100.000000	92	740
Frame#	Time	RPSI			LPSI			L3			STRN			T10			C7			CLAV			RBAK			LBAK			LSHO			LUPA			LAEL			LAOL			LWTS			LWPS			LFRA			LIFD			LHPS			LHTS			RSHO			RUPA			RAEL			RAOL			RWTS			RWPS			RFRA			RIFD			RHTS			RHPS			RBHD			LFHD			RFHD			LBHD			LHIP			RHIP			RASI			LASI			LKNE			LTHI			LANK			LTIP			LTOE			LMT1			LMT5			LHEE			RKNE			RTHI			RANK			RTIP			RTOE			RMT1			RMT5			RHEE			
		X1	Y1	Z1	X2	Y2	Z2	X3	Y3	Z3	X4	Y4	Z4	X5	Y5	Z5	X6	Y6	Z6	X7	Y7	Z7	X8	Y8	Z8	X9	Y9	Z9	X10	Y10	Z10	X11	Y11	Z11	X12	Y12	Z12	X13	Y13	Z13	X14	Y14	Z14	X15	Y15	Z15	X16	Y16	Z16	X17	Y17	Z17	X18	Y18	Z18	X19	Y19	Z19	X20	Y20	Z20	X21	Y21	Z21	X22	Y22	Z22	X23	Y23	Z23	X24	Y24	Z24	X25	Y25	Z25	X26	Y26	Z26	X27	Y27	Z27	X28	Y28	Z28	X29	Y29	Z29	X30	Y30	Z30	X31	Y31	Z31	X32	Y32	Z32	X33	Y33	Z33	X34	Y34	Z34	X35	Y35	Z35	X36	Y36	Z36	X37	Y37	Z37	X38	Y38	Z38	X39	Y39	Z39	X40	Y40	Z40	X41	Y41	Z41	X42	Y42	Z42	X43	Y43	Z43	X44	Y44	Z44	X45	Y45	Z45	X46	Y46	Z46	X47	Y47	Z47	X48	Y48	Z48	X49	Y49	Z49	X50	Y50	Z50	X51	Y51	Z51	X52	Y52	Z52	X53	Y53	Z53	

93	0.92	219.9519195556641	1106.084838867188	1164.343139648438	221.4376068115234	1114.000610351562	1299.036743164062	226.9406585693359	1146.792724609375	1236.4404296875	4.007808685302734	1338.015380859375	1240.204223632812	258.9500122070312	1300.566040039062	1241.577270507812	209.3370056152344	1588.852294921875	1255.595092773438	32.43349075317383	1474.706298828125	1241.291870117188	275.7578735351562	1405.858154296875	1174.096313476562	211.9916687011719	1570.941650390625	1357.687133789062	123.448616027832	1555.892333984375	1423.823608398438	147.6746826171875	1426.889526367188	1497.115478515625	143.0312347412109	1205.5263671875	1516.664306640625	212.7764587402344	1197.393310546875	1464.083129882812	64.91133880615234	939.9848022460938	1463.60888671875	145.0731811523438	920.9000854492188	1495.964721679688	132.765380859375	1087.932861328125	1518.793701171875	74.00988006591797	746.8833618164062	1436.359741210938	123.1855621337891	843.6107788085938	1493.817504882812	55.78133773803711	848.3182373046875	1471.541748046875	165.0947418212891	1562.781616210938	1071.675170898438	192.3544464111328	1490.294189453125	1011.480834960938	234.5964202880859	1199.806030273438	999.2904052734375	230.8152923583984	1200.627075195312	1095.63134765625	122.849006652832	940.5347900390625	1001.205627441406	202.8865509033203	933.7476196289062	979.1781005859375	222.1479339599609	1124.636840820312	982.8082275390625	125.3309631347656	744.8197631835938	1024.14404296875	109.5768356323242	827.6912841796875	995.3667602539062	180.7567749023438	829.7528076171875	973.7064819335938	160.5836639404297	1761.219848632812	1176.901733398438	-46.07091522216797	1801.240356445312	1242.150756835938	-4.222050189971924	1796.452514648438	1118.318359375	122.352294921875	1770.398193359375	1305.408447265625	140.9999694824219	1023.270568847656	1411.932373046875	82.03385162353516	1012.937255859375	1053.836303710938	7.383805751800537	1083.559204101562	1111.321044921875	24.93858528137207	1081.50439453125	1380.573608398438	170.0027618408203	523.0631713867188	1366.76708984375	173.5355834960938	670.0588989257812	1398.995239257812	361.9924621582031	44.06790161132812	1337.135009765625	308.329833984375	291.5287780761719	1383.211303710938	134.9800109863281	42.32201385498047	1260.335815429688	218.9467926025391	46.14483261108398	1234.249267578125	234.1414794921875	40.01805114746094	1353.040893554688	435.6131591796875	47.56281280517578	1280.78759765625	-136.6149749755859	582.2794799804688	1100.5126953125	-13.70834636688232	832.8145751953125	1068.758422851562	-81.01025390625	54.08316040039062	1123.763916015625	-127.1005783081055	440.2881774902344	1090.1728515625	-305.2973327636719	91.98152160644531	1144.764404296875	-257.8348083496094	68.12638854980469	1192.598388671875	-206.7489776611328	67.63636779785156	1086.728393554688	-30.82922554016113	54.5789909362793	1178.337646484375	
94	0.93	214.390869140625	1104.837036132812	1163.8408203125	215.9063873291016	1112.881591796875	1298.498291015625	221.2927856445312	1145.532104492188	1235.873779296875	-1.650250554084778	1336.654418945312	1239.614379882812	253.3388977050781	1299.319580078125	1240.861572265625	203.6410217285156	1587.596313476562	1254.809326171875	26.76621627807617	1473.37890625	1240.662475585938	270.0959167480469	1404.601440429688	1173.32861328125	206.3333740234375	1569.715576171875	1356.89501953125	117.8582077026367	1554.714233398438	1423.12646484375	142.2850952148438	1425.771240234375	1496.504028320312	138.0433502197266	1204.453002929688	1516.261108398438	207.6321868896484	1196.256958007812	1463.481567382812	60.25606155395508	938.785888671875	1463.824829101562	140.5989685058594	919.7197265625	1495.514282226562	128.0061187744141	1086.8388671875	1518.492309570312	69.78416442871094	745.7313232421875	1436.451538085938	118.9850006103516	842.4580688476562	1493.566772460938	51.47462844848633	846.9801025390625	1471.723388671875	159.3277435302734	1561.45947265625	1070.91064453125	186.6512298583984	1488.997314453125	1010.741638183594	229.5073699951172	1198.600708007812	998.894775390625	225.6618194580078	1199.52392578125	1095.234619140625	118.4801712036133	938.9990844726562	1001.09765625	198.6042633056641	932.4382934570312	979.0643920898438	217.2976684570312	1123.391967773438	982.4906616210938	121.6441421508789	743.3250732421875	1024.312622070312	105.5843811035156	826.0650024414062	995.4144897460938	176.7933044433594	828.3562622070312	973.7428588867188	154.8400573730469	1759.923828125	1176.292114257812	-52.15934753417969	1799.56591796875	1240.508666992188	-9.74651050567627	1794.73681640625	1116.9287109375	116.0172500610352	1769.180297851562	1304.600341796875	135.7370452880859	1022.190612792969	1411.47216796875	76.61016082763672	1011.387329101562	1053.51513671875	1.85396933555603	1081.992309570312	1110.83740234375	19.4474983215332	1080.187377929688	1380.2138671875	166.9750671386719	522.17431640625	1366.638916015625	169.7173156738281	669.226806640625	1398.649658203125	361.9784240722656	44.22175979614258	1336.930786132812	306.9307250976562	291.4663696289062	1382.995849609375	134.8425445556641	42.24549865722656	1260.450927734375	218.8311309814453	46.18567657470703	1234.348754882812	234.0321044921875	39.73602676391602	1353.061157226562	435.5329895019531	48.0688362121582	1280.522216796875	-139.4120178222656	579.699951171875	1098.680786132812	-17.8050537109375	830.6922607421875	1067.411987304688	-103.8883819580078	50.52181625366211	1125.611450195312	-134.4542083740234	437.8117065429688	1089.188598632812	-326.4182434082031	96.00668334960938	1146.545288085938	-280.0948791503906	70.52082824707031	1194.330932617188	-229.0802764892578	68.19919586181641	1088.597412109375	-53.64627456665039	49.62312698364258	1180.30078125	
95	0.9400000000000001	208.6797332763672	1103.522216796875	1163.298706054688	210.2203826904297	1111.704223632812	1297.919799804688	215.4862213134766	1144.201904296875	1235.263305664062	-7.476351737976074	1335.214477539062	1238.922119140625	247.5635528564453	1298.006469726562	1240.088134765625	197.770263671875	1586.278564453125	1253.942626953125	20.91996955871582	1471.974853515625	1239.941528320312	264.2740478515625	1403.275634765625	1172.49072265625	200.4989471435547	1568.426391601562	1356.01953125	112.0807952880859	1553.462036132812	1422.335327148438	136.6917724609375	1424.553588867188	1495.793701171875	132.8931274414062	1203.310668945312	1515.779174804688	202.2988891601562	1195.044799804688	1462.793334960938	55.37011337280273	937.5401611328125	1464.046264648438	135.9742279052734	918.498779296875	1495.010986328125	123.0689392089844	1085.67529296875	1518.132446289062	65.32135772705078	744.514404296875	1436.499145507812	114.6225662231445	841.2387084960938	1493.248046875	47.00384902954102	845.6094970703125	1471.920776367188	153.4029846191406	1560.06689453125	1070.062866210938	180.8078460693359	1487.62744140625	1009.917602539062	224.2901306152344	1197.316772460938	998.4410400390625	220.3740386962891	1198.353149414062	1094.77734375	113.8536224365234	937.4317626953125	1000.927673339844	194.0668640136719	931.060791015625	978.9061279296875	212.2910766601562	1122.07080078125	982.11474609375	117.5592803955078	741.8164672851562	1024.434814453125	101.2723999023438	824.435791015625	995.413818359375	172.5010681152344	826.9025268554688	973.7412109375	148.9910736083984	1758.564331054688	1175.592651367188	-58.3287353515625	1797.875610351562	1238.765502929688	-15.36657619476318	1792.9853515625	1115.453125	109.5822372436523	1767.906982421875	1303.710571289062	130.2987670898438	1021.050170898438	1410.969360351562	71.02442932128906	1009.751037597656	1053.12744140625	-3.815640687942505	1080.317626953125	1110.290771484375	13.79327964782715	1078.80517578125	1379.78515625	163.7903594970703	521.2327270507812	1366.457763671875	165.7530670166016	668.3453979492188	1398.256103515625	361.9538879394531	44.37191390991211	1336.73193359375	305.4165954589844	291.3733520507812	1382.77294921875	134.7234497070312	42.19316864013672	1260.55078125	218.7266998291016	46.22336578369141	1234.425659179688	233.9528961181641	39.50779342651367	1353.090942382812	435.4595031738281	48.628173828125	1280.28515625	-142.1347198486328	576.9586181640625	1096.902221679688	-21.88350677490234	828.328369140625	1065.924072265625	-126.3810272216797	47.60364532470703	1127.269409179688	-141.6559906005859	435.3898620605469	1088.232177734375	-347.0052490234375	100.4826202392578	1148.340576171875	-301.7826538085938	73.49619293212891	1196.09521484375	-250.9767608642578	69.25775146484375	1090.364013671875	-76.04269409179688	45.3751106262207	1182.010986328125	
96	0.9500000000000001	202.8171234130859	1102.145874023438	1162.714233398438	204.3773803710938	1110.470581054688	1297.300048828125	209.5232543945312	1142.808715820312	1234.60791015625	-13.47658538818359	1333.69873046875	1238.127075195312	241.6175079345703	1296.632446289062	1239.25927734375	191.7175750732422	1584.904907226562	1252.99267578125	14.88662624359131	1470.497680664062	1239.129272460938	258.2921447753906	1401.886596679688	1171.581665039062	194.4803161621094	1567.081176757812	1355.060302734375	106.1071014404297	1552.140014648438	1421.448364257812	130.8794708251953	1423.231323242188	1494.979248046875	127.5685119628906	1202.095336914062	1515.211181640625	196.7800445556641	1193.777465820312	1462.026245117188	50.23403930664062	936.2542114257812	1464.230590820312	131.1746368408203	917.2399291992188	1494.462890625	117.9418029785156	1084.4404296875	1517.702026367188	60.58227157592773	743.2247924804688	1436.48291015625	110.0668792724609	839.9591674804688	1492.865844726562	42.33946228027344	844.2283935546875	1472.11669921875	147.3127288818359	1558.605102539062	1069.130004882812	174.8137817382812	1486.183837890625	1009.008605957031	218.9330139160156	1195.95556640625	997.923828125	214.9427490234375	1197.110595703125	1094.254516601562	108.9652557373047	935.834228515625	1000.69287109375	189.2689361572266	929.6126708984375	978.7000122070312	207.1124114990234	1120.671508789062	981.67626953125	113.0897521972656	740.2860717773438	1024.504516601562	96.64309692382812	822.8011474609375	995.3557739257812	167.8864288330078	825.3898315429688	973.6941528320312	143.0308380126953	1757.134765625	1174.80419921875	-64.58634948730469	1796.182983398438	1236.917358398438	-21.0849494934082	1791.208618164062	1113.885375976562	103.0399856567383	1766.5771484375	1302.73291015625	124.6795120239258	1019.84814453125	1410.419067382812	65.28294372558594	1008.038330078125	1052.659423828125	-9.625537872314453	1078.543579101562	1109.67431640625	7.970723152160645	1077.357299804688	1379.27392578125	160.4495697021484	520.24267578125	1366.219482421875	161.6411743164062	667.41796875	1397.812622070312	361.9159851074219	44.5238151550293	1336.547607421875	303.7808837890625	291.2575988769531	1382.550415039062	134.6256256103516	42.15804290771484	1260.631713867188	218.6356964111328	46.25547409057617	1234.481811523438	233.90771484375	39.34408187866211	1353.132568359375	435.4024047851562	49.24628067016602	1280.092041015625	-144.8521423339844	574.1149291992188	1095.228881835938	-25.96389961242676	825.73681640625	1064.283935546875	-148.3108673095703	45.31630325317383	1128.708251953125	-148.7102966308594	433.0690002441406	1087.328979492188	-366.9715270996094	105.3228988647461	1149.961059570312	-322.7687072753906	77.00388336181641	1197.721557617188	-272.2567443847656	70.77971649169922	1091.912109375	-97.89151000976562	41.83737564086914	1183.458251953125	
